<svg xmlns="http://www.w3.org/2000/svg" xmlns:xlink="http://www.w3.org/1999/xlink" width="440" height="586" viewBox="0 0 440 586">
  <defs>
    <rect id="logo_construction-b" width="209" height="531" x="0" y="0"/>
    <linearGradient id="logo_construction-f" x1="50%" x2="50%" y1="0%" y2="98.328%">
      <stop offset="0%" stop-color="#C83809"/>
      <stop offset="100%" stop-color="#661A27"/>
    </linearGradient>
    <path id="logo_construction-e" d="M108.399355,85.4994471 C144.930298,85.5083319 175.937254,112.286817 181.263876,148.427334 C186.373659,183.096458 186.487477,216.709487 181.605332,249.266421 C174.298876,297.990044 155.803642,347.39785 126.11963,397.489837 C122.51739,403.568646 115.974894,407.295542 108.908915,407.293823 L108.477563,407.293718 C101.387544,407.291994 95.0311745,402.922969 92.489324,396.304256 C71.464183,341.557283 57.2915122,289.853241 49.9713117,241.192133 C45.2806238,210.010737 43.4033096,178.830025 44.339369,147.649998 C45.378973,113.021534 73.7552901,85.4910211 108.399355,85.4994471 Z"/>
    <filter id="logo_construction-d" width="105.7%" height="102.5%" x="-2.8%" y="-1.9%" filterUnits="objectBoundingBox">
      <feMorphology in="SourceAlpha" radius=".5" result="shadowSpreadOuter1"/>
      <feOffset dy="-2" in="shadowSpreadOuter1" result="shadowOffsetOuter1"/>
      <feGaussianBlur in="shadowOffsetOuter1" result="shadowBlurOuter1" stdDeviation="1.5"/>
      <feColorMatrix in="shadowBlurOuter1" values="0 0 0 0 0.0766666667   0 0 0 0 0.065   0 0 0 0 0.135  0 0 0 0.5 0"/>
    </filter>
    <linearGradient id="logo_construction-i" x1="50%" x2="50%" y1="0%" y2="98.328%">
      <stop offset="0%" stop-color="#E6B700"/>
      <stop offset="100%" stop-color="#661A27"/>
    </linearGradient>
    <path id="logo_construction-h" d="M130.73021,39.4320393 C164.981527,39.4394881 193.125992,66.4704355 194.515316,100.693565 C196.067546,138.928559 194.306904,177.162832 189.233391,215.396385 C181.886483,270.76204 167.593351,329.610701 146.353993,391.94237 C144.08715,398.594956 137.837422,403.06694 130.809231,403.065411 C123.779973,403.063882 117.530144,398.591409 115.260653,391.9386 C93.9936404,329.596579 79.6745895,270.740697 72.3035002,215.370956 C67.2134722,177.135965 65.4361821,138.901694 66.97163,100.668143 C68.3457296,66.4526435 96.4871301,39.4245924 130.73021,39.4320393 Z"/>
    <filter id="logo_construction-g" width="105.4%" height="101.9%" x="-2.7%" y="-1.2%" filterUnits="objectBoundingBox">
      <feMorphology in="SourceAlpha" radius=".5" result="shadowSpreadOuter1"/>
      <feOffset dy="-1" in="shadowSpreadOuter1" result="shadowOffsetOuter1"/>
      <feGaussianBlur in="shadowOffsetOuter1" result="shadowBlurOuter1" stdDeviation="1.5"/>
      <feColorMatrix in="shadowBlurOuter1" values="0 0 0 0 0.0766666667   0 0 0 0 0.065   0 0 0 0 0.135  0 0 0 0.5 0"/>
    </filter>
    <linearGradient id="logo_construction-l" x1="50%" x2="50%" y1="0%" y2="98.328%">
      <stop offset="0%" stop-color="#C83809"/>
      <stop offset="100%" stop-color="#661A27"/>
    </linearGradient>
    <path id="logo_construction-k" d="M167.204095,9.60011755 C201.243813,9.60369942 229.25129,36.3977231 230.761552,70.4039212 C232.673949,113.463745 230.98222,156.52319 225.686363,199.582255 C218.304385,259.602962 203.919982,323.415599 182.533156,391.020167 C180.424083,397.687036 174.237894,402.218385 167.245375,402.218385 C160.252643,402.218385 154.066027,397.687517 151.955759,391.020803 C130.554429,323.40965 116.156435,259.592699 108.761775,199.569951 C103.456913,156.510172 101.756111,113.450772 103.659369,70.3917508 C105.162306,36.3891765 133.168321,9.59653609 167.204095,9.60011755 Z"/>
    <filter id="logo_construction-j" width="106.2%" height="102%" x="-3.1%" y="-1.5%" filterUnits="objectBoundingBox">
      <feMorphology in="SourceAlpha" radius=".5" result="shadowSpreadOuter1"/>
      <feOffset dy="-2" in="shadowSpreadOuter1" result="shadowOffsetOuter1"/>
      <feGaussianBlur in="shadowOffsetOuter1" result="shadowBlurOuter1" stdDeviation="1.5"/>
      <feColorMatrix in="shadowBlurOuter1" values="0 0 0 0 0.0766666667   0 0 0 0 0.065   0 0 0 0 0.135  0 0 0 0.5 0"/>
    </filter>
    <linearGradient id="logo_construction-o" x1="50%" x2="50%" y1="0%" y2="98.328%">
      <stop offset="0%" stop-color="#E6B700"/>
      <stop offset="100%" stop-color="#661A27"/>
    </linearGradient>
    <path id="logo_construction-n" d="M214.518105,0 C248.514905,8.60316624e-16 276.493817,26.7495251 278.02045,60.7120303 C280.003905,104.838323 278.323637,148.964616 272.979644,193.090909 C265.626739,253.805148 252.008765,318.337503 232.125722,386.687976 C229.994233,394.015232 223.280103,399.054545 215.649119,399.054545 C207.986205,399.054545 201.2152,394.067434 198.942335,386.749351 C177.706929,318.376134 163.411673,253.82332 156.056567,193.090909 C150.712574,148.964616 149.032306,104.838323 151.01576,60.7120303 C152.542394,26.7495251 180.521306,1.33505381e-14 214.518105,0 Z"/>
    <filter id="logo_construction-m" width="105.4%" height="101.8%" x="-2.7%" y="-1.1%" filterUnits="objectBoundingBox">
      <feMorphology in="SourceAlpha" radius=".5" result="shadowSpreadOuter1"/>
      <feOffset dy="-1" in="shadowSpreadOuter1" result="shadowOffsetOuter1"/>
      <feGaussianBlur in="shadowOffsetOuter1" result="shadowBlurOuter1" stdDeviation="1.5"/>
      <feColorMatrix in="shadowBlurOuter1" values="0 0 0 0 0.0766666667   0 0 0 0 0.065   0 0 0 0 0.135  0 0 0 0.5 0"/>
    </filter>
    <rect id="logo_construction-p" width="231" height="585" x="209" y=".384"/>
    <circle id="logo_construction-a" cx="208.5" cy="410.884" r="15.5"/>
    <mask id="logo_construction-r" width="33" height="33" x="-1" y="-1" maskContentUnits="userSpaceOnUse" maskUnits="objectBoundingBox">
      <rect width="33" height="33" x="192" y="394.384" fill="#fff"/>
      <use xlink:href="#logo_construction-a"/>
    </mask>
  </defs>
  <g fill="none" fill-rule="evenodd">
    <g transform="translate(0 28.384)">
      <mask id="logo_construction-c" fill="#fff">
        <use xlink:href="#logo_construction-b"/>
      </mask>
      <g mask="url(#logo_construction-c)">
        <g transform="translate(-6.61)">
          <path fill="#661A27" d="M191.715358 494.714064C192.531585 497.164876 194.824794 498.818182 197.407952 498.818182L197.407952 498.818182 235.233046 498.818182C235.663572 498.818182 236.045773 498.542631 236.181811 498.134162L236.181811 498.134162 240.241182 485.945455 250.451894 485.945455C251.556463 485.945455 252.451894 486.840885 252.451894 487.945455 252.451894 488.131134 252.426037 488.315908 252.375068 488.494455L240.655393 529.549001C240.410229 530.407824 239.62535 531 238.732219 531L193.321918 531C190.642525 531 188.28789 529.223471 187.552396 526.647002L176.661143 488.494455C176.357938 487.432316 176.973177 486.325485 178.035316 486.022281 178.213863 485.971312 178.398638 485.945455 178.584317 485.945455L188.795029 485.945455zM275.610413 392.618182C263.93371 403.693652 256.431146 412.377635 253.102721 418.67013 249.774295 424.962625 247.630706 434.515006 246.671952 447.327273L241.848875 447.327273 241.844818 447.215245C241.59365 443.749486 229.710481 440.951014 214.993809 440.891864L214.993809 440.891864 214.518105 440.890909C199.423738 440.890909 187.187336 443.772567 187.187336 447.327273L187.187336 447.327273 182.364259 447.327273C182.020995 436.6 179.877405 427.047619 175.93349 418.67013 171.989575 410.292641 164.487011 401.608658 153.425798 392.618182L275.610413 392.618182z"/>
          <g transform="scale(-1 1) rotate(17 0 -520.714)">
            <use fill="#000" filter="url(#logo_construction-d)" xlink:href="#logo_construction-e"/>
            <use fill="url(#logo_construction-f)" xlink:href="#logo_construction-e"/>
          </g>
          <g transform="scale(-1 1) rotate(15 0 -771.896)">
            <use fill="#000" filter="url(#logo_construction-g)" xlink:href="#logo_construction-h"/>
            <use fill="url(#logo_construction-i)" xlink:href="#logo_construction-h"/>
          </g>
          <g transform="scale(-1 1) rotate(7 0 -2528.02)">
            <use fill="#000" filter="url(#logo_construction-j)" xlink:href="#logo_construction-k"/>
            <use fill="url(#logo_construction-l)" xlink:href="#logo_construction-k"/>
          </g>
          <use fill="#000" filter="url(#logo_construction-m)" xlink:href="#logo_construction-n"/>
          <use fill="url(#logo_construction-o)" xlink:href="#logo_construction-n"/>
          <rect width="1.825" height="38.618" x="183.972" y="447.327" fill="#661A27"/>
        </g>
      </g>
    </g>
    <mask id="logo_construction-q" fill="#fff">
      <use xlink:href="#logo_construction-p"/>
    </mask>
    <path stroke="#000" stroke-dasharray="2 4" stroke-linecap="square" d="M209,29.3844294 C315.590957,29.3844294 402,101.466585 402,190.384429 C402,279.302274 315.590957,351.384429 209,351.384429 L209,351.384429 Z" mask="url(#logo_construction-q)"/>
    <line x1="234.5" x2="249.5" y1="513.844" y2="558.924" stroke="#000" stroke-dasharray="2 4" stroke-linecap="square" mask="url(#logo_construction-q)" transform="matrix(-1 0 0 1 484 0)"/>
    <line x1="209" x2="370" y1="526.384" y2="526.384" stroke="#000" stroke-dasharray="2 4" stroke-linecap="square" mask="url(#logo_construction-q)"/>
    <path stroke="#000" stroke-dasharray="2 4" stroke-linecap="square" d="M209.5,157.384429 C245.122366,157.384429 274,128.506796 274,92.8844294 C274,57.262063 245.122366,28.3844294 209.5,28.3844294 C173.877634,28.3844294 145,57.262063 145,92.8844294 C145,128.506796 173.877634,157.384429 209.5,157.384429 Z" mask="url(#logo_construction-q)"/>
    <line x1="209.5" x2="209.5" y1=".384" y2="585.384" stroke="#000" stroke-dasharray="2 4" stroke-linecap="square" mask="url(#logo_construction-q)"/>
    <g stroke="#000" stroke-dasharray="2 4" stroke-linecap="square" stroke-width="2" mask="url(#logo_construction-q)">
      <use mask="url(#logo_construction-r)" xlink:href="#logo_construction-a"/>
    </g>
    <line x1="209" x2="370" y1="475.384" y2="475.384" stroke="#000" stroke-dasharray="2 4" stroke-linecap="square" mask="url(#logo_construction-q)"/>
    <line x1="209" x2="370" y1="426.384" y2="426.384" stroke="#000" stroke-dasharray="2 4" stroke-linecap="square" mask="url(#logo_construction-q)"/>
    <line x1="209" x2="370" y1="513.384" y2="513.384" stroke="#000" stroke-dasharray="2 4" stroke-linecap="square" mask="url(#logo_construction-q)"/>
    <line x1="209" x2="370" y1="559.384" y2="559.384" stroke="#000" stroke-dasharray="2 4" stroke-linecap="square" mask="url(#logo_construction-q)"/>
    <path stroke="#000" stroke-dasharray="2 4" stroke-linecap="square" d="M228.401372,89.3844294 C224.170383,141.812667 225.530344,192.56442 232.481255,241.639689 C239.432165,290.714958 253.938414,348.629871 276,415.384429 L252.113471,251.787101 L228.401372,89.3844294 Z" mask="url(#logo_construction-q)" transform="matrix(-1 0 0 1 502 0)"/>
    <line x1="275.592" x2="386.236" y1="253.451" y2="428.105" stroke="#000" stroke-dasharray="2 4" stroke-linecap="square" mask="url(#logo_construction-q)" transform="matrix(-1 0 0 1 661.828 0)"/>
    <line x1="241.5" x2="241.5" y1="476.384" y2="513.384" stroke="#000" stroke-dasharray="2 4" stroke-linecap="square" mask="url(#logo_construction-q)"/>
    <path stroke="#000" stroke-dasharray="2 4" stroke-linecap="square" d="M265 427.384429C257.530068 437.931653 252.595004 446.085499 250.194809 451.845968 247.794614 457.606436 246.063011 465.45259 245 475.384429M211 484C228.120827 484 242 480.865993 242 477 242 473.134007 228.120827 470 211 470 193.879173 470 180 473.134007 180 477 180 480.865993 193.879173 484 211 484z" mask="url(#logo_construction-q)"/>
  </g>
</svg>
