<svg xmlns="http://www.w3.org/2000/svg" xmlns:xlink="http://www.w3.org/1999/xlink" width="200" height="200" viewBox="0 0 200 200">
  <defs>
    <rect id="logo_app_icon-a" width="200" height="200" x="0" y="0" rx="35"/>
    <linearGradient id="logo_app_icon-c" x1="50%" x2="50%" y1="0%" y2="118.121%">
      <stop offset="0%" stop-color="#1E183C"/>
      <stop offset="100%" stop-color="#C83809"/>
    </linearGradient>
    <linearGradient id="logo_app_icon-f" x1="50%" x2="50%" y1="0%" y2="98.328%">
      <stop offset="0%" stop-color="#C83809"/>
      <stop offset="100%" stop-color="#661A27"/>
    </linearGradient>
    <path id="logo_app_icon-e" d="M96.1301353,26.565704 L96.9054554,26.565704 C107.752772,26.5657043 116.981226,34.4721702 118.6451,45.1911164 C120.368192,56.2915588 120.447651,67.045186 118.883475,77.451998 C116.602114,92.63041 110.824343,108.023316 101.550162,123.630717 C100.468878,125.450396 98.5087888,126.565704 96.392091,126.565704 L96.1301353,126.565704 C93.9253214,126.565704 91.9484042,125.207306 91.1578563,123.149094 C84.6241443,106.138669 80.2209646,90.0732376 77.9483171,74.9528007 C76.4927363,65.2684924 75.9111256,55.5841841 76.2034852,45.8998758 C76.5286438,35.128813 85.3541657,26.565704 96.1301353,26.565704 Z"/>
    <filter id="logo_app_icon-d" width="118.2%" height="108%" x="-9.1%" y="-6%" filterUnits="objectBoundingBox">
      <feMorphology in="SourceAlpha" radius=".5" result="shadowSpreadOuter1"/>
      <feOffset dy="-2" in="shadowSpreadOuter1" result="shadowOffsetOuter1"/>
      <feGaussianBlur in="shadowOffsetOuter1" result="shadowBlurOuter1" stdDeviation="1.5"/>
      <feColorMatrix in="shadowBlurOuter1" values="0 0 0 0 0.0766666667   0 0 0 0 0.065   0 0 0 0 0.135  0 0 0 0.5 0"/>
    </filter>
    <path id="logo_app_icon-h" d="M34,26.565704 L34.7753201,26.565704 C45.6226369,26.5657043 54.8510909,34.4721702 56.5149646,45.1911164 C58.2380569,56.2915588 58.3175154,67.045186 56.75334,77.451998 C54.4719787,92.63041 48.6942076,108.023316 39.4200267,123.630717 C38.3387425,125.450396 36.3786535,126.565704 34.2619557,126.565704 L34,126.565704 C31.795186,126.565704 29.8182689,125.207306 29.0277209,123.149094 C22.494009,106.138669 18.0908293,90.0732376 15.8181818,74.9528007 C14.3626009,65.2684924 13.7809903,55.5841841 14.0733499,45.8998758 C14.3985084,35.128813 23.2240304,26.565704 34,26.565704 Z"/>
    <filter id="logo_app_icon-g" width="118.2%" height="108%" x="-9.1%" y="-6%" filterUnits="objectBoundingBox">
      <feMorphology in="SourceAlpha" radius=".5" result="shadowSpreadOuter1"/>
      <feOffset dy="-2" in="shadowSpreadOuter1" result="shadowOffsetOuter1"/>
      <feGaussianBlur in="shadowOffsetOuter1" result="shadowBlurOuter1" stdDeviation="1.5"/>
      <feColorMatrix in="shadowBlurOuter1" values="0 0 0 0 0.0766666667   0 0 0 0 0.065   0 0 0 0 0.135  0 0 0 0.5 0"/>
    </filter>
    <linearGradient id="logo_app_icon-k" x1="50%" x2="50%" y1="0%" y2="98.328%">
      <stop offset="0%" stop-color="#E6B700"/>
      <stop offset="100%" stop-color="#661A27"/>
    </linearGradient>
    <path id="logo_app_icon-j" d="M93.0617926,12.0000001 C103.712895,12.0000001 112.465396,20.4066136 112.894625,31.0490634 C113.373609,42.9251821 112.823271,54.8013008 111.243611,66.6774194 C108.955154,83.8823723 104.506419,102.170077 97.8974073,121.540534 C97.1915401,123.609383 95.2477449,125 93.0617926,125 C90.8758403,125 88.9320451,123.609383 88.2261778,121.540534 C81.617166,102.170077 77.1684315,83.8823723 74.8799744,66.6774194 C73.3003137,54.8013008 72.7499757,42.9251821 73.2289606,31.0490634 C73.6581889,20.4066136 82.4106905,12.0000001 93.0617926,12.0000001 Z"/>
    <filter id="logo_app_icon-i" width="117.5%" height="106.2%" x="-8.7%" y="-4%" filterUnits="objectBoundingBox">
      <feMorphology in="SourceAlpha" radius=".5" result="shadowSpreadOuter1"/>
      <feOffset dy="-1" in="shadowSpreadOuter1" result="shadowOffsetOuter1"/>
      <feGaussianBlur in="shadowOffsetOuter1" result="shadowBlurOuter1" stdDeviation="1.5"/>
      <feColorMatrix in="shadowBlurOuter1" values="0 0 0 0 0.0766666667   0 0 0 0 0.065   0 0 0 0 0.135  0 0 0 0.5 0"/>
    </filter>
    <path id="logo_app_icon-m" d="M40.9417926,12.2511901 C51.5928946,12.2511901 60.3453963,20.6578036 60.7746245,31.3002534 C61.2536094,43.1763721 60.7032715,55.0524908 59.1236108,66.9286094 C56.8351536,84.1335623 52.3864191,102.421267 45.7774073,121.791724 C45.0715401,123.860573 43.1277449,125.25119 40.9417926,125.25119 C38.7558403,125.25119 36.8120451,123.860573 36.1061778,121.791724 C29.497166,102.421267 25.0484315,84.1335623 22.7599744,66.9286094 C21.1803137,55.0524908 20.6299757,43.1763721 21.1089606,31.3002534 C21.5381889,20.6578036 30.2906905,12.2511901 40.9417926,12.2511901 Z"/>
    <filter id="logo_app_icon-l" width="117.5%" height="106.2%" x="-8.7%" y="-4%" filterUnits="objectBoundingBox">
      <feMorphology in="SourceAlpha" radius=".5" result="shadowSpreadOuter1"/>
      <feOffset dy="-1" in="shadowSpreadOuter1" result="shadowOffsetOuter1"/>
      <feGaussianBlur in="shadowOffsetOuter1" result="shadowBlurOuter1" stdDeviation="1.5"/>
      <feColorMatrix in="shadowBlurOuter1" values="0 0 0 0 0.0766666667   0 0 0 0 0.065   0 0 0 0 0.135  0 0 0 0.5 0"/>
    </filter>
    <linearGradient id="logo_app_icon-p" x1="50%" x2="50%" y1="0%" y2="98.328%">
      <stop offset="0%" stop-color="#C83809"/>
      <stop offset="100%" stop-color="#661A27"/>
    </linearGradient>
    <path id="logo_app_icon-o" d="M81.714953,2.98270212 C92.3013892,2.98270212 101.011961,11.3161758 101.480169,21.8922532 C102.072266,35.2664888 101.544466,48.6407245 99.8967712,62.0149602 C97.599099,80.6650166 93.1237168,100.493495 86.4706245,121.500396 C85.8139724,123.573726 83.8897837,124.982702 81.714953,124.982702 C79.5401223,124.982702 77.6159336,123.573726 76.9592814,121.500396 C70.3061891,100.493495 65.8308069,80.6650166 63.5331348,62.0149602 C61.8854396,48.6407245 61.3576404,35.2664888 61.9497373,21.8922532 C62.4179454,11.3161758 71.1285168,2.98270212 81.714953,2.98270212 Z"/>
    <filter id="logo_app_icon-n" width="120%" height="106.6%" x="-10%" y="-4.9%" filterUnits="objectBoundingBox">
      <feMorphology in="SourceAlpha" radius=".5" result="shadowSpreadOuter1"/>
      <feOffset dy="-2" in="shadowSpreadOuter1" result="shadowOffsetOuter1"/>
      <feGaussianBlur in="shadowOffsetOuter1" result="shadowBlurOuter1" stdDeviation="1.5"/>
      <feColorMatrix in="shadowBlurOuter1" values="0 0 0 0 0.0766666667   0 0 0 0 0.065   0 0 0 0 0.135  0 0 0 0.5 0"/>
    </filter>
    <path id="logo_app_icon-r" d="M52.284953,2.98270212 C62.8713892,2.98270212 71.5819605,11.3161758 72.0501687,21.8922532 C72.6422655,35.2664888 72.1144664,48.6407245 70.4667712,62.0149602 C68.169099,80.6650166 63.6937168,100.493495 57.0406245,121.500396 C56.3839724,123.573726 54.4597837,124.982702 52.284953,124.982702 C50.1101223,124.982702 48.1859336,123.573726 47.5292814,121.500396 C40.8761891,100.493495 36.4008069,80.6650166 34.1031348,62.0149602 C32.4554396,48.6407245 31.9276404,35.2664888 32.5197373,21.8922532 C32.9879454,11.3161758 41.6985168,2.98270212 52.284953,2.98270212 Z"/>
    <filter id="logo_app_icon-q" width="120%" height="106.6%" x="-10%" y="-4.9%" filterUnits="objectBoundingBox">
      <feMorphology in="SourceAlpha" radius=".5" result="shadowSpreadOuter1"/>
      <feOffset dy="-2" in="shadowSpreadOuter1" result="shadowOffsetOuter1"/>
      <feGaussianBlur in="shadowOffsetOuter1" result="shadowBlurOuter1" stdDeviation="1.5"/>
      <feColorMatrix in="shadowBlurOuter1" values="0 0 0 0 0.0766666667   0 0 0 0 0.065   0 0 0 0 0.135  0 0 0 0.5 0"/>
    </filter>
    <linearGradient id="logo_app_icon-u" x1="50%" x2="50%" y1="0%" y2="98.328%">
      <stop offset="0%" stop-color="#E6B700"/>
      <stop offset="100%" stop-color="#661A27"/>
    </linearGradient>
    <path id="logo_app_icon-t" d="M67,0 C77.5738335,-1.94238169e-15 86.2758643,8.31993832 86.7503333,18.8831212 C87.3659446,32.5887475 86.8431062,46.2943737 85.1818182,60 C82.8822587,78.9713657 78.40141,99.1424405 71.7392721,120.513224 C71.0926744,122.587307 69.1725344,124 67,124 C64.8274656,124 62.9073256,122.587307 62.2607279,120.513224 C55.59859,99.1424405 51.1177413,78.9713657 48.8181818,60 C47.1568938,46.2943737 46.6340554,32.5887475 47.2496667,18.8831212 C47.7241357,8.31993832 56.4261665,-1.61033198e-15 67,0 Z"/>
    <filter id="logo_app_icon-s" width="117.5%" height="105.6%" x="-8.7%" y="-3.6%" filterUnits="objectBoundingBox">
      <feMorphology in="SourceAlpha" radius=".5" result="shadowSpreadOuter1"/>
      <feOffset dy="-1" in="shadowSpreadOuter1" result="shadowOffsetOuter1"/>
      <feGaussianBlur in="shadowOffsetOuter1" result="shadowBlurOuter1" stdDeviation="1.5"/>
      <feColorMatrix in="shadowBlurOuter1" values="0 0 0 0 0.0766666667   0 0 0 0 0.065   0 0 0 0 0.135  0 0 0 0.5 0"/>
    </filter>
  </defs>
  <g fill="none" fill-rule="evenodd">
    <mask id="logo_app_icon-b" fill="#fff">
      <use xlink:href="#logo_app_icon-a"/>
    </mask>
    <use fill="#383838" xlink:href="#logo_app_icon-a"/>
    <g mask="url(#logo_app_icon-b)">
      <rect width="200" height="200" fill="url(#logo_app_icon-c)"/>
      <g transform="translate(33 17)">
        <path fill="#661A27" d="M60.1054093 154.316228C60.2415233 154.72457 60.6236621 155 61.0540926 155L61.0540926 155 72.9459074 155C73.3763379 155 73.7584767 154.72457 73.8945907 154.316228L73.8945907 154.316228 75 151 76.34854 151C77.4531095 151 78.34854 151.895431 78.34854 153 78.34854 153.185833 78.3226402 153.370759 78.2715879 153.549442L75.4144451 163.549442C75.1691299 164.408045 74.3843579 165 73.4913972 165L60.5086028 165C59.6156421 165 58.8308701 164.408045 58.5855549 163.549442L55.7284121 153.549442C55.4249635 152.487372 56.0399477 151.380401 57.1020177 151.076952 57.2807006 151.0259 57.4656269 151 57.65146 151L59 151zM86 122C82.3684896 125.44153 80.0351563 128.139943 79 130.095238 77.9648438 132.050533 77.2981771 135.018787 77 139L75.5 139 75.4943941 138.926679C75.3304242 137.856076 71.5900999 137 67 137 62.3055796 137 58.5 137.895431 58.5 139L58.5 139 57 139C56.6867002 134.990222 56.0200336 132.021968 55 130.095238 53.9799664 128.168508 51.6466331 125.470095 48 122L86 122z"/>
        <g transform="rotate(17 98.065 76.566)">
          <use fill="#000" filter="url(#logo_app_icon-d)" xlink:href="#logo_app_icon-e"/>
          <use fill="url(#logo_app_icon-f)" xlink:href="#logo_app_icon-e"/>
        </g>
        <g transform="scale(-1 1) rotate(17 0 -163.88)">
          <use fill="#000" filter="url(#logo_app_icon-g)" xlink:href="#logo_app_icon-h"/>
          <use fill="url(#logo_app_icon-f)" xlink:href="#logo_app_icon-h"/>
        </g>
        <g transform="rotate(15 93.062 68.5)">
          <use fill="#000" filter="url(#logo_app_icon-i)" xlink:href="#logo_app_icon-j"/>
          <use fill="url(#logo_app_icon-k)" xlink:href="#logo_app_icon-j"/>
        </g>
        <g transform="scale(-1 1) rotate(15 0 -242.233)">
          <use fill="#000" filter="url(#logo_app_icon-l)" xlink:href="#logo_app_icon-m"/>
          <use fill="url(#logo_app_icon-k)" xlink:href="#logo_app_icon-m"/>
        </g>
        <g transform="rotate(7 81.715 63.983)">
          <use fill="#000" filter="url(#logo_app_icon-n)" xlink:href="#logo_app_icon-o"/>
          <use fill="url(#logo_app_icon-p)" xlink:href="#logo_app_icon-o"/>
        </g>
        <g transform="scale(-1 1) rotate(7 0 -790.869)">
          <use fill="#000" filter="url(#logo_app_icon-q)" xlink:href="#logo_app_icon-r"/>
          <use fill="url(#logo_app_icon-p)" xlink:href="#logo_app_icon-r"/>
        </g>
        <use fill="#000" filter="url(#logo_app_icon-s)" xlink:href="#logo_app_icon-t"/>
        <use fill="url(#logo_app_icon-u)" xlink:href="#logo_app_icon-t"/>
        <rect width="1" height="12" x="57.5" y="139" fill="#661A27"/>
        <rect width="1" height="12" x="76" y="139" fill="#661A27"/>
      </g>
    </g>
  </g>
</svg>
