<svg xmlns="http://www.w3.org/2000/svg" width="46" height="44" viewBox="0 0 46 44">
  <g fill="none" fill-rule="evenodd" transform="translate(0 1)">
    <path fill="#003" d="M38,10.608 C40.209139,10.608 42,12.398861 42,14.608 L42,19.608 L31,19.608 C29.9456382,19.608 29.0818349,20.4238778 29.0054857,21.4587377 L29,21.608 L29,31.608 C29,32.6623618 29.8158778,33.5261651 30.8507377,33.6025143 L31,33.608 L42,33.608 L42,38.608 C42,40.817139 40.209139,42.608 38,42.608 L4,42.608 C1.790861,42.608 2.705415e-16,40.817139 0,38.608 L0,14.608 C-2.705415e-16,12.398861 1.790861,10.608 4,10.608 L38,10.608 Z M7.5,36.608 C6.67157288,36.608 6,37.2795729 6,38.108 C6,38.9364271 6.67157288,39.608 7.5,39.608 C8.32842712,39.608 9,38.9364271 9,38.108 C9,37.2795729 8.32842712,36.608 7.5,36.608 Z M14.5,36.608 C13.6715729,36.608 13,37.2795729 13,38.108 C13,38.9364271 13.6715729,39.608 14.5,39.608 C15.3284271,39.608 16,38.9364271 16,38.108 C16,37.2795729 15.3284271,36.608 14.5,36.608 Z M21.5,36.608 C20.6715729,36.608 20,37.2795729 20,38.108 C20,38.9364271 20.6715729,39.608 21.5,39.608 C22.3284271,39.608 23,38.9364271 23,38.108 C23,37.2795729 22.3284271,36.608 21.5,36.608 Z M28.5,36.608 C27.6715729,36.608 27,37.2795729 27,38.108 C27,38.9364271 27.6715729,39.608 28.5,39.608 C29.3284271,39.608 30,38.9364271 30,38.108 C30,37.2795729 29.3284271,36.608 28.5,36.608 Z M35.5,36.608 C34.6715729,36.608 34,37.2795729 34,38.108 C34,38.9364271 34.6715729,39.608 35.5,39.608 C36.3284271,39.608 37,38.9364271 37,38.108 C37,37.2795729 36.3284271,36.608 35.5,36.608 Z M7.5,13.608 C6.67157288,13.608 6,14.2795729 6,15.108 C6,15.9364271 6.67157288,16.608 7.5,16.608 C8.32842712,16.608 9,15.9364271 9,15.108 C9,14.2795729 8.32842712,13.608 7.5,13.608 Z M14.5,13.608 C13.6715729,13.608 13,14.2795729 13,15.108 C13,15.9364271 13.6715729,16.608 14.5,16.608 C15.3284271,16.608 16,15.9364271 16,15.108 C16,14.2795729 15.3284271,13.608 14.5,13.608 Z M21.5,13.608 C20.6715729,13.608 20,14.2795729 20,15.108 C20,15.9364271 20.6715729,16.608 21.5,16.608 C22.3284271,16.608 23,15.9364271 23,15.108 C23,14.2795729 22.3284271,13.608 21.5,13.608 Z M28.5,13.608 C27.6715729,13.608 27,14.2795729 27,15.108 C27,15.9364271 27.6715729,16.608 28.5,16.608 C29.3284271,16.608 30,15.9364271 30,15.108 C30,14.2795729 29.3284271,13.608 28.5,13.608 Z M35.5,13.608 C34.6715729,13.608 34,14.2795729 34,15.108 C34,15.9364271 34.6715729,16.608 35.5,16.608 C36.3284271,16.608 37,15.9364271 37,15.108 C37,14.2795729 36.3284271,13.608 35.5,13.608 Z"/>
    <path fill="#003" d="M44,21.608 C45.1045695,21.608 46,22.5034305 46,23.608 L46,29.608 C46,30.7125695 45.1045695,31.608 44,31.608 L33,31.608 C31.8954305,31.608 31,30.7125695 31,29.608 L31,23.608 C31,22.5034305 31.8954305,21.608 33,21.608 L44,21.608 Z M36,24.608 C34.8954305,24.608 34,25.5034305 34,26.608 C34,27.7125695 34.8954305,28.608 36,28.608 C37.1045695,28.608 38,27.7125695 38,26.608 C38,25.5034305 37.1045695,24.608 36,24.608 Z"/>
    <path fill="#009978" d="M30.2370263,0.732050808 L34.782681,8.607 L12.596681,8.607 L27.5049755,-2.62012634e-14 C28.4615608,-0.55228475 29.6847416,-0.224534439 30.2370263,0.732050808 Z"/>
  </g>
</svg>
