<svg xmlns="http://www.w3.org/2000/svg" width="48" height="44" viewBox="0 0 48 44">
  <g fill="none" fill-rule="evenodd" transform="translate(0 -3)">
    <path fill="#003" d="M1.41443519,33.4281016 L6.39847605,33.5842443 C6.60262173,33.5906399 6.78235393,33.7205592 6.85245086,33.9123997 L10.0860598,42.7621059 C10.1564273,42.9546869 10.1020906,43.1707102 9.94898147,43.3070797 L6.23174324,46.6179088 C6.02553424,46.8015728 5.70947974,46.7832964 5.52581576,46.5770874 C5.48386545,46.5299877 5.4512054,46.475376 5.42955879,46.4161338 L0.929147211,34.0994558 C0.834375479,33.8400855 0.967808947,33.5529967 1.2271792,33.458225 C1.28710432,33.4363289 1.35066631,33.4261038 1.41443519,33.4281016 Z M44.4958778,27.1935022 L44.8259974,27.3795668 C45.1595989,27.5675937 45.3935436,27.8641741 45.5085049,28.2000557 C45.9059434,28.052255 46.3639233,28.0752436 46.762288,28.2997729 L47.0924076,28.4858375 C47.8140965,28.8926012 48.0693937,29.8073928 47.6626299,30.5290816 C47.6575156,30.5381554 47.652307,30.5471758 47.6470048,30.5561411 L44.6416567,35.6378328 C44.4237491,36.0062891 44.0723086,36.2478984 43.6847617,36.3365619 L30.4861413,43.7747022 C28.9847019,44.6209549 27.165691,44.393594 25.9233029,43.3321581 L17.2667607,40.254 L11.2929714,42.3779003 L7.80476065,33.0219104 C10.178418,31.6114467 11.9108611,30.653597 13.00209,30.1483615 C14.4102753,29.4323871 16.2842879,28.9956782 18.3411443,28.9956782 C20.1758558,28.9956782 21.8650858,29.3431501 23.2089034,29.9265631 L34.5172141,32.1647958 C35.7226211,32.4032849 36.5141437,33.5642618 36.2957367,34.7734688 C36.0729241,36.0070675 34.9453905,36.8666204 33.6968384,36.7546872 L25.1357607,35.987 L28.5497607,37.2 L29.3357607,36.756 L33.908456,37.3164523 C35.1693315,37.4708362 36.3356404,36.6564105 36.638007,35.4402107 L36.6724834,35.2793441 L36.7885607,34.6366836 L36.7921336,34.6164263 C36.9070352,33.9489215 36.7458128,33.2977224 36.3910918,32.7798146 L41.0307607,30.166 L42.4682587,27.736665 C42.8837685,27.0340866 43.7847967,26.7927173 44.4958778,27.1935022 Z"/>
    <path fill="#CB9500" d="M19 3C22.8659932 3 26 6.13400675 26 10 26 13.8659932 22.8659932 17 19 17 15.1340068 17 12 13.8659932 12 10 12 6.13400675 15.1340068 3 19 3zM19.4736842 4L18.2105263 4 18.2101848 5.66892482C17.635595 5.75683698 17.1767823 5.95778866 16.8337469 6.27177984 16.3573201 6.70786836 16.1191067 7.2554757 16.1191067 7.91460185 16.1191067 8.63697749 16.3655914 9.16794023 16.8585608 9.50749007 17.1173605 9.68799151 17.5617641 9.85665679 18.1917716 10.0134859L18.1917716 10.0134859 18.4367246 10.071742 19.2109181 10.2465103 19.3977819 10.2902279C19.7567225 10.3794973 20.0269408 10.4797725 20.2084367 10.5910535 20.420182 10.7242103 20.5260546 10.9122943 20.5260546 11.1553055 20.5260546 11.5714205 20.3126551 11.8560431 19.8858561 12.0091734 19.6608768 12.0890675 19.3680728 12.1290146 19.0074442 12.1290146 18.4052936 12.1290146 17.9801489 11.9775487 17.7320099 11.674617 17.6189688 11.535912 17.5369451 11.3382574 17.4859388 11.0816531L17.4859388 11.0816531 17.4590571 10.9206166 16 10.9206166 16.0067674 11.1253658C16.0518836 11.7943137 16.3225806 12.3277662 16.8188586 12.7257235 17.1888515 13.0224148 17.6523118 13.2185634 18.2092396 13.3141693L18.2092396 13.3141693 18.2105263 15 19.4736842 15 19.4749034 13.3671779C20.2130927 13.3102425 20.7992084 13.0930955 21.2332506 12.7157367 21.7444169 12.2713259 22 11.7128996 22 11.0404577 22 10.3846605 21.7816377 9.88365803 21.3449132 9.53745035 21.1038639 9.34627523 20.7631539 9.18811756 20.3227832 9.06297735L20.3227832 9.06297735 20.0942928 9.00315869 18.8337469 8.69856251 18.6592742 8.65557263C18.2706266 8.55690136 18.0111663 8.46969926 17.8808933 8.39396633 17.6492969 8.26413845 17.5334988 8.06773217 17.5334988 7.80474749 17.5334988 7.51846037 17.6509512 7.29542274 17.8858561 7.13563458 18.120761 6.97584642 18.4350703 6.89595234 18.8287841 6.89595234 19.1827957 6.89595234 19.4789082 6.95753736 19.7171216 7.0807074 20.0347395 7.24641364 20.2216504 7.5133848 20.2778544 7.88162089L20.2778544 7.88162089 20.292804 8.02445621 21.7617866 8.02445621 21.7481492 7.81570404C21.6812952 7.13520127 21.4004812 6.60807641 20.9057072 6.23432949 20.4934188 5.92289131 20.0161028 5.72941548 19.4737593 5.65390198L19.4737593 5.65390198 19.4736842 4zM31 13C34.8659932 13 38 16.1340068 38 20 38 23.8659932 34.8659932 27 31 27 27.1340068 27 24 23.8659932 24 20 24 16.1340068 27.1340068 13 31 13zM31.4736842 14L30.2105263 14 30.2101848 15.6689248C29.635595 15.756837 29.1767823 15.9577887 28.8337469 16.2717798 28.3573201 16.7078684 28.1191067 17.2554757 28.1191067 17.9146019 28.1191067 18.6369775 28.3655914 19.1679402 28.8585608 19.5074901 29.1173605 19.6879915 29.5617641 19.8566568 30.1917716 20.0134859L30.1917716 20.0134859 30.4367246 20.071742 31.2109181 20.2465103 31.3977819 20.2902279C31.7567225 20.3794973 32.0269408 20.4797725 32.2084367 20.5910535 32.420182 20.7242103 32.5260546 20.9122943 32.5260546 21.1553055 32.5260546 21.5714205 32.3126551 21.8560431 31.8858561 22.0091734 31.6608768 22.0890675 31.3680728 22.1290146 31.0074442 22.1290146 30.4052936 22.1290146 29.9801489 21.9775487 29.7320099 21.674617 29.6189688 21.535912 29.5369451 21.3382574 29.4859388 21.0816531L29.4859388 21.0816531 29.4590571 20.9206166 28 20.9206166 28.0067674 21.1253658C28.0518836 21.7943137 28.3225806 22.3277662 28.8188586 22.7257235 29.1888515 23.0224148 29.6523118 23.2185634 30.2092396 23.3141693L30.2092396 23.3141693 30.2105263 25 31.4736842 25 31.4749034 23.3671779C32.2130927 23.3102425 32.7992084 23.0930955 33.2332506 22.7157367 33.7444169 22.2713259 34 21.7128996 34 21.0404577 34 20.3846605 33.7816377 19.883658 33.3449132 19.5374503 33.1038639 19.3462752 32.7631539 19.1881176 32.3227832 19.0629773L32.3227832 19.0629773 32.0942928 19.0031587 30.8337469 18.6985625 30.6592742 18.6555726C30.2706266 18.5569014 30.0111663 18.4696993 29.8808933 18.3939663 29.6492969 18.2641385 29.5334988 18.0677322 29.5334988 17.8047475 29.5334988 17.5184604 29.6509512 17.2954227 29.8858561 17.1356346 30.120761 16.9758464 30.4350703 16.8959523 30.8287841 16.8959523 31.1827957 16.8959523 31.4789082 16.9575374 31.7171216 17.0807074 32.0347395 17.2464136 32.2216504 17.5133848 32.2778544 17.8816209L32.2778544 17.8816209 32.292804 18.0244562 33.7617866 18.0244562 33.7481492 17.815704C33.6812952 17.1352013 33.4004812 16.6080764 32.9057072 16.2343295 32.4934188 15.9228913 32.0161028 15.7294155 31.4737593 15.653902L31.4737593 15.653902 31.4736842 14z"/>
  </g>
</svg>
