<svg xmlns="http://www.w3.org/2000/svg" width="28" height="42" viewBox="0 0 28 42">
  <g fill="none" fill-rule="evenodd" transform="translate(-10 -2)">
    <path fill="#003" d="M24,2 C27.8659932,2 31,5.13400675 31,9 L31,27 C31,30.8659932 27.8659932,34 24,34 C20.1340068,34 17,30.8659932 17,27 L17,9 C17,5.13400675 20.1340068,2 24,2 Z M24,4 C21.2385763,4 19,6.23857625 19,9 L19,9 L19,27 C19,29.7614237 21.2385763,32 24,32 C26.7614237,32 29,29.7614237 29,27 L29,27 L29,9 C29,6.23857625 26.7614237,4 24,4 Z"/>
    <path fill="#003" d="M13.8520623,18 L34.1479377,18 C35.1930103,18 36.0618933,18.8046127 36.1420467,19.846607 L37.8343544,41.846607 C37.919071,42.947923 37.0949544,43.9093924 35.9936384,43.994109 C35.9426016,43.9980349 35.891433,44 35.8402454,44 L12.1597546,44 C11.0551851,44 10.1597546,43.1045695 10.1597546,42 C10.1597546,41.9488125 10.1617197,41.8976438 10.1656456,41.846607 L11.8579533,19.846607 C11.9381067,18.8046127 12.8069897,18 13.8520623,18 Z"/>
    <rect width="12" height="1" x="18" y="24" fill="#FFF"/>
    <rect width="12" height="1" x="18" y="30" fill="#FFF"/>
    <rect width="12" height="1" x="18" y="37" fill="#FFF"/>
  </g>
</svg>
