<svg xmlns="http://www.w3.org/2000/svg" width="44" height="29" viewBox="0 0 44 29">
  <path fill="#003" fill-rule="evenodd" d="M46,19 L46,36 C46,38.209139 44.209139,40 42,40 L6,40 C3.790861,40 2,38.209139 2,36 L2,19 L46,19 Z M15,29 L7,29 C6.44771525,29 6,29.4477153 6,30 L6,30 L6,31 C6,31.5522847 6.44771525,32 7,32 L7,32 L15,32 C15.5522847,32 16,31.5522847 16,31 L16,31 L16,30 C16,29.4477153 15.5522847,29 15,29 L15,29 Z M20,23 L7,23 C6.44771525,23 6,23.4477153 6,24 L6,24 L6,25 C6,25.5522847 6.44771525,26 7,26 L7,26 L20,26 C20.5522847,26 21,25.5522847 21,25 L21,25 L21,24 C21,23.4477153 20.5522847,23 20,23 L20,23 Z M39,23 L35,23 C34.4477153,23 34,23.4477153 34,24 L34,24 L34,25 C34,25.5522847 34.4477153,26 35,26 L35,26 L39,26 C39.5522847,26 40,25.5522847 40,25 L40,25 L40,24 C40,23.4477153 39.5522847,23 39,23 L39,23 Z M42,11 C44.209139,11 46,12.790861 46,15 L46,16 L2,16 L2,15 C2,12.790861 3.790861,11 6,11 L42,11 Z" transform="translate(-2 -11)"/>
</svg>
