<svg xmlns="http://www.w3.org/2000/svg" width="42" height="32" viewBox="0 0 42 32">
  <path fill="#003" fill-rule="evenodd" d="M26.25,17.0625 L39.375,31.5 L2.625,31.5 L15.75,17.0625 L20.7,20.775 C20.8777778,20.9083333 21.1222222,20.9083333 21.3,20.775 L21.3,20.775 L26.25,17.0625 Z M0,2.625 L14.065998,15.4122709 C14.2703268,15.5980244 14.2853851,15.9142485 14.0996316,16.1185773 C14.0991684,16.1190869 14.098704,16.1195956 14.0982387,16.1201033 L0,31.5 L0,2.625 Z M42,2.625 L42,31.5 L27.9017613,16.1201033 C27.901296,16.1195956 27.9008316,16.1190869 27.9003684,16.1185773 C27.7146149,15.9142485 27.7296732,15.5980244 27.934002,15.4122709 L27.934002,15.4122709 L42,2.625 Z M42,0 L21.3292523,18.0869042 C21.1407393,18.2518531 20.8592607,18.2518531 20.6707477,18.0869042 L0,0 L42,0 Z"/>
</svg>
