<svg xmlns="http://www.w3.org/2000/svg" width="36" height="43" viewBox="0 0 36 43">
  <path fill="#003" fill-rule="evenodd" d="M24.8012996,13 C30.2980612,19.8519421 33.7670296,25.1745228 35.208205,28.9677419 C36.252482,31.7163119 36.2638075,34.9291281 35.2421816,38.6061904 C34.5206988,41.2029454 32.1562836,43 29.4611632,43 L7.1952114,43 C3.88327173,42.9999934 1.02457691,40.6789019 0.344419884,37.4375548 C-0.279188168,34.4656968 -0.0559657511,31.6424258 1.01408713,28.9677419 C2.73212896,24.6733572 6.33567626,19.3507766 11.824729,13 L24.8012996,13 Z M18.9473684,16 L16.4210526,16 L16.4208808,19.1055827 C15.2714621,19.2866928 14.3536664,19.7008019 13.6674938,20.34791 C12.7146402,21.2465166 12.2382134,22.3749196 12.2382134,23.733119 C12.2382134,25.2216506 12.7311828,26.3157556 13.7171216,27.0154341 C14.2162354,27.3740928 15.0605155,27.7100728 16.249962,28.0233742 L16.5545146,28.1012271 L16.8734491,28.178135 L18.4218362,28.5382637 L18.7150691,28.6080029 C19.4731693,28.7970227 20.0404375,29.0104323 20.4168734,29.2482315 C20.8403639,29.5226152 21.0521092,29.9101822 21.0521092,30.4109325 C21.0521092,31.2683816 20.6253102,31.8548767 19.7717122,32.170418 C19.3217535,32.3350482 18.7361456,32.4173633 18.0148883,32.4173633 C16.8105873,32.4173633 15.9602978,32.1052519 15.4640199,31.4810289 C15.2530098,31.214267 15.096039,30.8416895 14.9931073,30.3632964 L14.9523022,30.1517923 L14.9181141,29.9273312 L12,29.9273312 L12.0056668,30.202243 C12.0661131,31.6497358 12.6101299,32.7979699 13.6377171,33.6469453 C14.3042143,34.1975942 15.1223607,34.5801711 16.0921563,34.7946759 L16.4210381,34.8599526 L16.4210526,38 L18.9473684,38 L18.9488244,34.9688082 C20.4256652,34.8516073 21.5982242,34.4041268 22.4665012,33.6263666 C23.4888337,32.7106109 24,31.5599143 24,30.1742765 C24,28.8229368 23.5632754,27.7905681 22.6898263,27.0771704 C22.2398677,26.7094962 21.6162779,26.401089 20.8190571,26.1519486 L20.5119603,26.061299 L20.1885856,25.9762058 L17.6674938,25.3485531 L17.4313482,25.2891747 C16.59126,25.0738121 16.0347395,24.8843873 15.7617866,24.7209003 C15.2985939,24.4533762 15.0669975,24.0486602 15.0669975,23.5067524 C15.0669975,22.9168274 15.3019024,22.4572347 15.7717122,22.1279743 C16.2415219,21.7987138 16.8701406,21.6340836 17.6575682,21.6340836 C18.3655914,21.6340836 18.9578164,21.7609861 19.4342432,22.014791 C20.0389387,22.3398302 20.4067521,22.8539546 20.5376834,23.5571643 L20.5675188,23.7536369 L20.5856079,23.9594855 L23.5235732,23.9594855 L23.5088566,23.678984 C23.4017018,22.2041478 22.8358877,21.0680663 21.8114144,20.2707395 C21.0694183,19.693259 20.2221124,19.3126031 19.2694969,19.1287718 L18.948058,19.0747845 L18.9473684,16 Z M15.5,4 C17.061205,3.55394144 18.5477968,2.80943053 19.9597756,1.76646726 L20.3430029,1.47461301 C21.3588137,0.677584076 22.7706471,0.619910146 23.8480827,1.33142916 C24.6928029,1.88926715 25.4101087,2.27879076 26,2.5 C27.4714582,3.05179682 30.4724242,2.29136376 30,3 L29.484375,3.7734375 C28.2447917,5.6328125 26.75,7.875 25,10.5 L12.5,10.5 C8.16666667,5.16666667 5.66666667,2 5,1 C5.5214678,-0.129846903 11.5,3.5 15.5,4 Z"/>
</svg>
