<svg xmlns="http://www.w3.org/2000/svg" width="16" height="16" viewBox="0 0 16 16">
  <g fill="#757575" fill-rule="evenodd">
    <circle cx="8" cy="8" r="4"/>
    <rect width="1" height="3" x="7.5" rx=".5"/>
    <path d="M14.4748737,1.35355339 C14.6701359,1.54881554 14.6701359,1.86539803 14.4748737,2.06066017 L13.0606602,3.47487373 C12.865398,3.67013588 12.5488155,3.67013588 12.3535534,3.47487373 C12.1582912,3.27961159 12.1582912,2.9630291 12.3535534,2.76776695 L13.767767,1.35355339 C13.9630291,1.15829124 14.2796116,1.15829124 14.4748737,1.35355339 Z"/>
    <rect width="1" height="3" x="1.914" y="11.914" rx=".5" transform="rotate(45 2.414 13.414)"/>
    <path d="M1.35355339,1.35355339 C1.54881554,1.15829124 1.86539803,1.15829124 2.06066017,1.35355339 L3.47487373,2.76776695 C3.67013588,2.9630291 3.67013588,3.27961159 3.47487373,3.47487373 C3.27961159,3.67013588 2.9630291,3.67013588 2.76776695,3.47487373 L1.35355339,2.06066017 C1.15829124,1.86539803 1.15829124,1.54881554 1.35355339,1.35355339 Z"/>
    <rect width="1" height="3" x="12.914" y="11.914" rx=".5" transform="rotate(-45 13.414 13.414)"/>
    <rect width="1" height="3" x="7.5" y="13" rx=".5"/>
    <rect width="3" height="1" x="13" y="7.5" rx=".5"/>
    <rect width="3" height="1" y="7.5" rx=".5"/>
  </g>
</svg>
