<svg xmlns="http://www.w3.org/2000/svg" width="24" height="18" viewBox="0 0 24 18">
  <g fill="none" fill-rule="evenodd">
    <path fill="#757575" d="M16.4648162,0 C16.7991694,8.26758735e-16 17.1114008,0.167101135 17.2968665,0.445299804 L18.333,2 L23,2 C23.5522847,2 24,2.44771525 24,3 L24,17 C24,17.5522847 23.5522847,18 23,18 L1,18 C0.44771525,18 6.76353751e-17,17.5522847 0,17 L0,3 C-6.76353751e-17,2.44771525 0.44771525,2 1,2 L5.667,2 L6.70313346,0.445299804 C6.88859924,0.167101135 7.20083057,-2.71647223e-16 7.53518376,0 L16.4648162,0 Z M12,6 C9.790861,6 8,7.790861 8,10 C8,12.209139 9.790861,14 12,14 C14.209139,14 16,12.209139 16,10 C16,7.790861 14.209139,6 12,6 Z M4,4 L3,4 C2.44771525,4 2,4.44771525 2,5 C2,5.55228475 2.44771525,6 3,6 L3,6 L4,6 C4.55228475,6 5,5.55228475 5,5 C5,4.44771525 4.55228475,4 4,4 L4,4 Z"/>
    <path fill="#454545" d="M12,4 C15.3137085,4 18,6.6862915 18,10 C18,13.3137085 15.3137085,16 12,16 C8.6862915,16 6,13.3137085 6,10 C6,6.6862915 8.6862915,4 12,4 Z M12,6 C9.790861,6 8,7.790861 8,10 C8,12.209139 9.790861,14 12,14 C14.209139,14 16,12.209139 16,10 C16,7.790861 14.209139,6 12,6 Z"/>
  </g>
</svg>
