<svg xmlns="http://www.w3.org/2000/svg" width="22" height="22" viewBox="0 0 22 22">
  <path fill="#757575" fill-rule="evenodd" d="M12,2 C18.0751322,2 23,6.92486775 23,13 C23,19.0751322 18.0751322,24 12,24 C5.92486775,24 1,19.0751322 1,13 C1,6.92486775 5.92486775,2 12,2 Z M12,14 C8.65180232,14 5.78401362,15.2855471 4.5911552,17.1111486 C6.21507908,19.4606392 8.92777105,21 12,21 C15.0717939,21 17.7841526,19.4610752 19.4093625,17.1109794 C18.217032,15.2860159 15.3488081,14 12,14 Z M12,7 C10.3431458,7 9,8.34314575 9,10 C9,11.6568542 10.3431458,13 12,13 C13.6568542,13 15,11.6568542 15,10 C15,8.34314575 13.6568542,7 12,7 Z" transform="translate(-1 -2)"/>
</svg>
