<svg xmlns="http://www.w3.org/2000/svg" width="14" height="16" viewBox="0 0 14 16">
  <path fill="#757575" fill-rule="evenodd" d="M12,0 C13.6568542,0 15,1.34314575 15,3 C15,4.65685425 13.6568542,6 12,6 C11.3702572,6 10.7858337,5.80596459 10.3032542,5.47441826 L9.097,7.86 L11.2677575,13.4066284 C11.3972606,13.7375043 11.4358958,14.0958644 11.3812762,14.4448295 L11.3461841,14.6183583 L11.0025024,16 L7.993,10.044 L4.98574434,15.9982861 L4.64206266,14.6166445 C4.54199672,14.2143673 4.56940236,13.7909364 4.72048925,13.4049146 L6.89,7.861 L5.68779752,5.48054227 C5.20694943,5.8083527 4.62585553,6 4,6 C2.34314575,6 1,4.65685425 1,3 C1,1.34314575 2.34314575,0 4,0 C5.40464582,0 6.5838203,0.965357536 6.91026366,2.26881281 L7.994,5.041 L9.1131737,2.18094578 C9.16642853,1.99287601 9.23756625,1.81231886 9.32463338,1.64122781 L9.32912813,1.63 C9.82727891,0.662626185 10.8362571,0 12,0 Z M12,1.5 C11.1715729,1.5 10.5,2.17157288 10.5,3 C10.5,3.82842712 11.1715729,4.5 12,4.5 C12.8284271,4.5 13.5,3.82842712 13.5,3 C13.5,2.17157288 12.8284271,1.5 12,1.5 Z M4,1.5 C3.17157288,1.5 2.5,2.17157288 2.5,3 C2.5,3.82842712 3.17157288,4.5 4,4.5 C4.82842712,4.5 5.5,3.82842712 5.5,3 C5.5,2.17157288 4.82842712,1.5 4,1.5 Z" transform="translate(-1)"/>
</svg>
