<svg xmlns="http://www.w3.org/2000/svg" width="20" height="20" viewBox="0 0 20 20">
  <path fill="#757575" fill-rule="evenodd" d="M15.0458605,1.99993792 C15.8795516,2.25962241 16.6684442,2.62160415 17.3979955,3.07127511 C17.2483611,3.39999994 17.1659632,3.76481373 17.1659632,4.14895893 C17.1659632,5.59429568 18.3324052,6.76597262 19.7712843,6.76597262 C20.1536788,6.76597262 20.5168316,6.68321988 20.8439625,6.53457009 C21.3459322,7.35429389 21.7380705,8.2506956 22.0000207,9.20142571 C20.9860846,9.72070411 20.2923486,10.7789731 20.2923486,12 C20.2923486,13.2210269 20.9860846,14.2792959 21.9992343,14.7988045 C21.7375933,15.7491397 21.3457944,16.645202 20.8443194,17.4664295 C20.5175615,17.3169465 20.1540631,17.2340274 19.7712843,17.2340274 C18.3324052,17.2340274 17.1659632,18.4057043 17.1659632,19.8510411 C17.1659632,20.2351863 17.2483611,20.6000001 17.3963719,20.9286222 C16.6684442,21.3783959 15.8795516,21.7403776 15.0458605,22.0000621 C14.8217103,20.4871319 13.5233178,19.3276383 11.955321,19.3276383 C10.3873242,19.3276383 9.08893163,20.4871319 8.86355844,21.9990984 C8.03061042,21.7397561 7.24235438,21.3781923 6.51331937,20.9290015 C6.66228086,20.6000001 6.74467872,20.2351863 6.74467872,19.8510411 C6.74467872,18.4057043 5.57823672,17.2340274 4.13935759,17.2340274 C3.75696317,17.2340274 3.39381032,17.3167801 3.06667943,17.4654299 C2.61888185,16.7343368 2.25861491,15.9421586 2.00012202,15.1050051 C3.50627762,14.8790627 4.66042182,13.5749187 4.66042182,12 C4.66042182,10.4250813 3.50627762,9.12093728 2.00122797,8.89441149 C2.25932084,8.05778954 2.61916645,7.26606396 3.06623711,6.53381892 C3.3945403,6.68338614 3.75734748,6.76597262 4.13935759,6.76597262 C5.57823672,6.76597262 6.74467872,5.59429568 6.74467872,4.14895893 C6.74467872,3.76481373 6.66228086,3.39999994 6.51427007,3.07137782 C7.24291968,2.62129154 8.0312782,2.25960161 8.86437542,2.00006441 C9.08931272,3.51320836 10.3875543,4.67236167 11.955321,4.67236167 C13.5033564,4.67236167 14.7886083,3.54220194 15.0379561,2.0584727 L15.0458605,1.99993792 Z M11.955321,7.8127781 C9.65311436,7.8127781 7.78680717,9.6874612 7.78680717,12 C7.78680717,14.3125388 9.65311436,16.1872219 11.955321,16.1872219 C14.2575276,16.1872219 16.1238348,14.3125388 16.1238348,12 C16.1238348,9.6874612 14.2575276,7.8127781 11.955321,7.8127781 Z" transform="translate(-2 -2)"/>
</svg>
