<svg xmlns="http://www.w3.org/2000/svg" width="20" height="19" viewBox="0 0 20 19">
  <path fill="#757575" fill-rule="evenodd" d="M17,18 C18.1045695,18 19,18.8954305 19,20 C19,21.1045695 18.1045695,22 17,22 C15.8954305,22 15,21.1045695 15,20 C15,18.8954305 15.8954305,18 17,18 Z M8,18 C9.1045695,18 10,18.8954305 10,20 C10,21.1045695 9.1045695,22 8,22 C6.8954305,22 6,21.1045695 6,20 C6,18.8954305 6.8954305,18 8,18 Z M6,17 L6,15.002 L6,15 L7.515,12.909 L4,5 L2,5 L2,3 L4.38196601,3 C4.76073807,3 5.10700119,3.21400238 5.2763932,3.5527864 L6,5 L20.3004855,5 C20.8527703,5 21.3004855,5.44771525 21.3004855,6 C21.3004855,6.16994425 21.257175,6.33708493 21.1746428,6.48564293 L17.2857539,13.4856429 C17.1093844,13.8031081 16.7747638,14 16.4115967,14 L9.189,14 L8.459,15 L18,15 C18.5522847,15 19,15.4477153 19,16 C19,16.5522847 18.5522847,17 18,17 L6,17 Z" transform="translate(-2 -3)"/>
</svg>
