<svg xmlns="http://www.w3.org/2000/svg" width="8" height="13" viewBox="0 0 8 13">
  <g fill="none" fill-rule="evenodd" transform="translate(-4 -1)">
    <path fill="#757575" d="M8,1 C9.1045695,1 10,1.8954305 10,3 L10.0011092,6.53577067 C11.1961002,7.22754725 12,8.5198932 12,10 C12,12.209139 10.209139,14 8,14 C5.790861,14 4,12.209139 4,10 C4,8.51948501 4.80434324,7.22683444 5.99987956,6.53519846 L6,3 C6,1.8954305 6.8954305,1 8,1 Z"/>
    <path fill="#FFF" d="M10.8286475,8.99817202 C10.9396111,9.31146737 11,9.6486814 11,10 C11,11.6568542 9.65685425,13 8,13 C6.34314575,13 5,11.6568542 5,10 C5,9.6486814 5.06038886,9.31146737 5.17135248,8.99817202 Z"/>
  </g>
</svg>
