<svg xmlns="http://www.w3.org/2000/svg" width="24" height="17" viewBox="0 0 24 17">
  <path fill="#757575" fill-rule="evenodd" d="M19,3 L19,8 L22.6286093,6.54855627 C23.1413928,6.34344286 23.7233633,6.59285877 23.9284767,7.10564229 C23.9757248,7.22376256 24,7.34981353 24,7.47703296 L24,16.522967 C24,17.0752518 23.5522847,17.522967 23,17.522967 C22.8727806,17.522967 22.7467296,17.4986918 22.6286093,17.4514437 L19,16 L19,20 L0,20 L0,3 L19,3 Z M6,6.69127122 C5.44771525,6.69127122 5,7.13898647 5,7.69127122 L5,7.69127122 L5,15.3087288 C5,15.4772317 5.04257935,15.6430025 5.12378409,15.7906475 C5.38994047,16.2745682 5.99799807,16.4511011 6.48191875,16.1849447 L6.48191875,16.1849447 L13.4068802,12.3762159 C13.5730399,12.2848281 13.7097895,12.1480785 13.8011773,11.9819187 C14.0673337,11.4979981 13.8908008,10.8899405 13.4068802,10.6237841 L13.4068802,10.6237841 L6.48191875,6.81505531 C6.33427377,6.73385057 6.16850297,6.69127122 6,6.69127122 Z" transform="translate(0 -3)"/>
</svg>
