<?xml version="1.0" standalone="no"?>
<!DOCTYPE svg PUBLIC "-//W3C//DTD SVG 20010904//EN"
 "http://www.w3.org/TR/2001/REC-SVG-20010904/DTD/svg10.dtd">
<svg version="1.0" xmlns="http://www.w3.org/2000/svg"
 width="558.000000pt" height="558.000000pt" viewBox="0 0 558.000000 558.000000"
 preserveAspectRatio="xMidYMid meet">
<metadata>
Created by potrace 1.11, written by Peter Selinger 2001-2013
</metadata>
<g transform="translate(0.000000,558.000000) scale(0.100000,-0.100000)"
fill="#000000" stroke="none">
<path d="M3705 5470 c-59 -92 -236 -367 -537 -835 -32 -49 -62 -97 -68 -105
-6 -8 -15 -21 -19 -29 -7 -11 -18 -8 -58 16 -180 111 -475 219 -680 249 -26 3
-57 8 -68 10 -82 17 -305 21 -451 10 -81 -6 -299 -47 -394 -74 -361 -104 -726
-348 -979 -657 -54 -65 -181 -247 -181 -258 0 -3 -17 -36 -39 -74 -84 -148
-166 -395 -207 -618 -22 -121 -26 -425 -7 -570 69 -533 349 -1015 781 -1345
262 -199 614 -345 927 -385 28 -4 64 -9 82 -11 52 -8 312 -8 388 0 77 8 245
35 255 41 4 2 21 7 39 10 47 8 224 65 235 76 6 5 16 9 23 9 18 0 210 92 268
129 27 17 52 31 56 31 4 0 40 -52 80 -115 41 -64 99 -155 130 -203 31 -48 150
-233 264 -412 114 -179 213 -333 219 -342 10 -14 37 22 182 247 93 146 176
276 184 290 19 32 345 541 425 665 34 52 151 235 260 405 109 171 213 333 231
360 18 28 91 142 162 255 72 113 134 210 139 215 4 6 15 22 23 36 89 151 177
278 194 279 14 0 16 3 7 13 -8 10 -7 17 1 25 9 9 7 12 -7 12 -15 1 -108 138
-375 555 -396 618 -526 822 -602 940 -29 44 -85 132 -126 195 -91 141 -102
159 -186 287 -36 57 -66 107 -66 112 0 5 -3 11 -7 13 -5 2 -44 59 -88 128 -73
116 -181 284 -294 457 l-47 72 -69 -109z"/>
</g>
</svg>
