<svg xmlns="http://www.w3.org/2000/svg" width="9" height="15" viewBox="0 0 9 15">
  <path fill="#746A60" fill-rule="evenodd" d="M8.60990381,0.265459199 L8.69050999,0.340481945 C9.08215189,0.7049956 9.10414368,1.31798079 8.73963002,1.70962269 C8.72384917,1.726578 8.7074653,1.74296188 8.69050999,1.75874273 L2.521,7.5 L8.69050999,13.2412573 C8.69898764,13.2491477 8.70732244,13.2571889 8.71551043,13.2653769 L8.73963002,13.2903773 C9.10414368,13.6820192 9.08215189,14.2950044 8.69050999,14.6595181 L8.69050999,14.6595181 L8.60990381,14.7345408 C8.2259829,15.0918683 7.63122489,15.0918683 7.24730398,14.7345408 L7.24730398,14.7345408 L0.309542982,8.27734454 C0.292587673,8.26156369 0.276203797,8.24517981 0.260422948,8.2282245 C0.0700494199,8.02368278 -0.0148997107,7.75876679 0.00317442708,7.50040409 C-0.0151190415,7.24191785 0.0698034592,6.97658149 0.260422948,6.7717755 C0.276203797,6.75482019 0.292587673,6.73843631 0.309542982,6.72265546 L7.24730398,0.265459199 C7.63122489,-0.0918682853 8.2259829,-0.0918682853 8.60990381,0.265459199 Z"/>
</svg>
