<svg xmlns="http://www.w3.org/2000/svg" width="24" height="18" viewBox="0 0 24 18">
  <g fill="none" fill-rule="evenodd">
    <path stroke="#404040" d="M16.4648162,0.5 L18.0653604,2.5 L23,2.5 L23.5,17 L1,17.5 L0.5,3 L5.93463962,2.5 L7.11915861,0.722649902 L16.4648162,0.5 Z"/>
    <path stroke="#404040" stroke-linecap="square" d="M12,4 C15.3137085,4 18,6.6862915 18,10 C18,13.3137085 15.3137085,16 12,16 C8.6862915,16 6,13.3137085 6,10 C6,6.6862915 8.6862915,4 12,4 Z M12,6 C9.790861,6 8,7.790861 8,10 C8,12.209139 9.790861,14 12,14 C14.209139,14 16,12.209139 16,10 C16,7.790861 14.209139,6 12,6 Z"/>
    <rect width="3" height="2" x="2" y="4" fill="#404040" rx="1"/>
  </g>
</svg>
