<svg xmlns="http://www.w3.org/2000/svg" width="14" height="16" viewBox="0 0 14 16">
  <path fill="none" stroke="#404040" stroke-width=".5" d="M12,0.25 C12.7593915,0.25 13.4468915,0.557804235 13.9445436,1.05545635 C14.4421958,1.55310847 14.75,2.24060847 14.75,3 C14.75,3.75939153 14.4421958,4.44689153 13.9445436,4.94454365 C13.4468915,5.44219577 12.7593915,5.75 12,5.75 C11.3948875,5.75 10.8353879,5.55462654 10.3812683,5.22336528 L10.2160298,5.09288876 L8.82344074,7.84698083 L11.034954,13.4977465 C11.1246169,13.7268323 11.1644987,13.9709753 11.1535638,14.2141885 L11.1358183,14.3961742 L10.9199836,15.2823492 L7.99294878,9.48955798 L5.06592868,15.2849798 L4.88466955,14.5562963 C4.81170479,14.2629692 4.81619674,13.9567883 4.89622894,13.6674004 L4.95329777,13.49602 L7.16353058,7.84804524 L5.77566063,5.09995098 C5.29659825,5.50557224 4.67683167,5.75 4,5.75 C3.24060847,5.75 2.55310847,5.44219577 2.05545635,4.94454365 C1.55780423,4.44689153 1.25,3.75939153 1.25,3 C1.25,2.24060847 1.55780423,1.55310847 2.05545635,1.05545635 C2.55310847,0.557804235 3.24060847,0.25 4,0.25 C4.63681395,0.25 5.22309846,0.466412178 5.68922775,0.829801969 C6.11611697,1.16260059 6.44237511,1.61854268 6.61434442,2.14433299 L6.67149583,2.34467439 L7.99388684,5.72733795 L9.35050536,2.26049227 C9.39963005,2.08408016 9.46592467,1.91479904 9.54701402,1.75545063 C9.78126237,1.29939202 10.1352772,0.918035774 10.5669668,0.653211918 C10.9846979,0.396951006 11.475196,0.25 12,0.25 Z M12,1.25 C11.5167508,1.25 11.0792508,1.44587542 10.7625631,1.76256313 C10.4458754,2.07925084 10.25,2.51675084 10.25,3 C10.25,3.48324916 10.4458754,3.92074916 10.7625631,4.23743687 C11.0792508,4.55412458 11.5167508,4.75 12,4.75 C12.4832492,4.75 12.9207492,4.55412458 13.2374369,4.23743687 C13.5541246,3.92074916 13.75,3.48324916 13.75,3 C13.75,2.51675084 13.5541246,2.07925084 13.2374369,1.76256313 C12.9207492,1.44587542 12.4832492,1.25 12,1.25 Z M4,1.25 C3.51675084,1.25 3.07925084,1.44587542 2.76256313,1.76256313 C2.44587542,2.07925084 2.25,2.51675084 2.25,3 C2.25,3.48324916 2.44587542,3.92074916 2.76256313,4.23743687 C3.07925084,4.55412458 3.51675084,4.75 4,4.75 C4.48324916,4.75 4.92074916,4.55412458 5.23743687,4.23743687 C5.55412458,3.92074916 5.75,3.48324916 5.75,3 C5.75,2.51675084 5.55412458,2.07925084 5.23743687,1.76256313 C4.92074916,1.44587542 4.48324916,1.25 4,1.25 Z" transform="translate(-1)"/>
</svg>
