<svg xmlns="http://www.w3.org/2000/svg" width="24" height="24" viewBox="0 0 24 24">
  <path fill="none" stroke="#404040" stroke-linecap="square" d="M12,0.5 L12.1533663,0.507744331 C12.5063455,0.543591326 12.8231444,0.701824045 13.0606602,0.939339828 C13.298176,1.17685561 13.4564087,1.49365446 13.4922557,1.84663371 L13.5,2 L13.5,2.59410311 L13.9404106,2.69170248 L13.9404106,2.69170248 L14.3737906,2.79837577 L14.7124777,2.10911276 C14.9005268,1.74004577 15.2203672,1.48214025 15.585462,1.36351373 C15.9505569,1.24488721 16.3609063,1.2655397 16.7299733,1.45358872 C17.0990403,1.64163774 17.3569458,1.96147813 17.4755723,2.32657302 C17.5793705,2.64603104 17.5765332,3.00013703 17.4482239,3.33091804 L17.3854973,3.47108426 L17.1264663,3.97946122 C17.2689068,4.08196402 17.3892473,4.16902907 17.495207,4.2467856 L17.5966589,4.32166629 L18.0606602,3.85355339 C18.3535534,3.56066017 18.7374369,3.41421356 19.1213203,3.41421356 C19.5052038,3.41421356 19.8890873,3.56066017 20.1819805,3.85355339 C20.4748737,4.14644661 20.6213203,4.53033009 20.6213203,4.91421356 C20.6213203,5.2501116 20.5091972,5.58600965 20.2849508,5.86095132 L20.1819805,5.97487373 L19.7387402,6.41811403 L19.8648888,6.63507296 L19.8648888,6.63507296 L19.9927903,6.84955671 L20.5550178,6.76548724 C20.9240848,6.57743822 21.3344342,6.55678573 21.699529,6.67541225 C22.0646239,6.79403877 22.3844643,7.05194429 22.5725133,7.42101127 C22.7605624,7.79007826 22.7812148,8.20042763 22.6625883,8.56552252 C22.5587901,8.88498054 22.3483564,9.16979059 22.0501238,9.36197972 L21.9169893,9.43850681 L21.3046149,9.75052713 L22.1016666,10.5033911 C22.4753751,10.528403 22.8116047,10.6902843 23.0606602,10.9393398 C23.3321068,11.2107864 23.5,11.5857864 23.5,12 C23.5,12.4142136 23.3321068,12.7892136 23.0606602,13.0606602 C22.8231444,13.298176 22.5063455,13.4564087 22.1533663,13.4922557 L22,13.5 L21.4026358,13.5 C21.3593741,13.697477 21.3233845,13.859821 21.2910013,14.0007922 L21.2596845,14.1351489 L21.9169893,14.4624777 C22.2860563,14.6505268 22.5439618,14.9703672 22.6625883,15.335462 C22.7812148,15.7005569 22.7605624,16.1109063 22.5725133,16.4799733 C22.3844643,16.8490403 22.0646239,17.1069458 21.699529,17.2255723 C21.3344342,17.3441988 20.9240848,17.3235463 20.5550524,17.135515 C20.0685827,17.1020319 19.929291,17.2446209 19.8173848,17.4000751 L19.7843147,17.4469341 L20.2196864,18.0997295 C20.4874424,18.3872387 20.6213203,18.7542795 20.6213203,19.1213203 C20.6213203,19.5052038 20.4748737,19.8890873 20.1819805,20.1819805 C19.8890873,20.4748737 19.5052038,20.6213203 19.1213203,20.6213203 C18.7854223,20.6213203 18.4495243,20.5091972 18.1745826,20.2849508 L18.0606602,20.1819805 L17.6074489,19.7287693 L17.4243018,20.6371268 C17.5758316,20.9842305 17.5854697,21.3612995 17.4755723,21.699529 C17.3569458,22.0646239 17.0990403,22.3844643 16.7299733,22.5725133 C16.3609063,22.7605624 15.9505569,22.7812148 15.585462,22.6625883 C15.266004,22.5587901 14.981194,22.3483564 14.7890048,22.0501238 L14.7124777,21.9169893 L14.3958665,21.2956047 C14.2600577,21.2992574 14.1266246,21.3094855 13.9945629,21.3232083 L13.7973732,21.3460287 L13.4964087,22.1046147 C13.4707448,22.4771433 13.3090605,22.8122598 13.0606602,23.0606602 C12.7892136,23.3321068 12.4142136,23.5 12,23.5 C11.5857864,23.5 11.2107864,23.3321068 10.9393398,23.0606602 C10.701824,22.8231444 10.5435913,22.5063455 10.5077443,22.1533663 L10.5,22 L10.5,21.4036894 C10.2861062,21.3572396 10.1006744,21.316083 9.93158235,21.2762615 L9.76748787,21.2367385 L9.43150681,21.9169893 C9.24345779,22.2860563 8.9236174,22.5439618 8.55852252,22.6625883 C8.19342763,22.7812148 7.78307826,22.7605624 7.41401127,22.5725133 C7.04494429,22.3844643 6.78703877,22.0646239 6.66841225,21.699529 C6.56461405,21.380071 6.56745133,21.025965 6.69576065,20.695184 L6.75848724,20.5550178 L6.99992063,20.0811781 L6.71898583,19.8987318 L6.71898583,19.8987318 L6.44471114,19.7073642 L5.97487373,20.1819805 C5.68198052,20.4748737 5.29809704,20.6213203 4.91421356,20.6213203 C4.53033009,20.6213203 4.14644661,20.4748737 3.85355339,20.1819805 C3.56066017,19.8890873 3.41421356,19.5052038 3.41421356,19.1213203 C3.41421356,18.7854223 3.52633675,18.4495243 3.75058312,18.1745826 L3.85355339,18.0606602 L4.29108687,17.6231267 C3.15691579,17.3235463 2.74656641,17.3441988 2.38147153,17.2255723 C2.01637665,17.1069458 1.69653626,16.8490403 1.50848724,16.4799733 C1.32043822,16.1109063 1.29978573,15.7005569 1.41841225,15.335462 C1.52221045,15.016004 1.73264414,14.731194 2.03087677,14.5390048 L2.16401127,14.4624777 L2.72737592,14.1754291 C2.69207309,13.9672516 2.66326634,13.7947472 2.6392756,13.6434369 L2.61682798,13.4986552 L2,13.5 C1.58578644,13.5 1.21078644,13.3321068 0.939339828,13.0606602 C0.667893219,12.7892136 0.5,12.4142136 0.5,12 C0.5,11.5857864 0.667893219,11.2107864 0.939339828,10.9393398 C1.17685561,10.701824 1.49365446,10.5435913 1.84663371,10.5077443 L2,10.5 L2.59595395,10.5 C2.64310808,10.2822408 2.68590243,10.0895324 2.72828511,9.91107298 L2.7706768,9.73696311 L2.16401127,9.43150681 C1.79494429,9.24345779 1.53703877,8.9236174 1.41841225,8.55852252 C1.29978573,8.19342763 1.32043822,7.78307826 1.50848724,7.41401127 C1.69653626,7.04494429 2.01637665,6.78703877 2.38147153,6.66841225 C2.74656641,6.54978573 3.15691579,6.57043822 3.52598328,6.7584875 C4.007951,6.78117397 4.15303365,6.63313869 4.27196893,6.4730452 L4.30717583,6.42481408 L3.85355339,5.97487373 C3.56066017,5.68198052 3.41421356,5.29809704 3.41421356,4.91421356 C3.41421356,4.53033009 3.56066017,4.14644661 3.85355339,3.85355339 C4.14644661,3.56066017 4.53033009,3.41421356 4.91421356,3.41421356 C5.2501116,3.41421356 5.58600965,3.52633675 5.86095132,3.75058312 L5.97487373,3.85355339 L6.40574626,4.28442592 L6.75848724,3.47108426 C6.57043822,3.10201727 6.54978573,2.6916679 6.66841225,2.32657302 C6.78703877,1.96147813 7.04494429,1.64163774 7.41401127,1.45358872 C7.78307826,1.2655397 8.19342763,1.24488721 8.55852252,1.36351373 C8.87798054,1.46731194 9.16279059,1.67774562 9.35497972,1.97597825 L9.43150681,2.10911276 L9.73737224,2.70940746 L10.0800461,2.67224334 L10.0800461,2.67224334 L10.4184235,2.62630396 L10.5,2 C10.5,1.58578644 10.6678932,1.21078644 10.9393398,0.939339828 C11.2107864,0.667893219 11.5857864,0.5 12,0.5 Z M12.5044378,14.1166677 L8.90417318,17.7169093 L9.18425555,17.8602145 C10.0361713,18.2702922 10.9912698,18.5 12,18.5 C13.2493324,18.5 14.4164066,18.1476775 15.40706,17.536667 C16.2557288,17.0132291 16.9750326,16.3001849 17.5058323,15.4565701 L17.5058323,15.4565701 L12.5044378,14.1166677 Z M8.85885638,6.30789308 C7.9258526,6.82392296 7.13321012,7.56269275 6.5525394,8.45236558 C5.8867669,9.47242683 5.5,10.691063 5.5,12 C5.5,13.3808874 5.93055542,14.6612346 6.66484476,15.7140173 L6.66484476,15.7140173 L10.3823542,11.9946414 Z M11.7499256,5.50471542 L13.2812279,11.2177659 L18.4718818,12.6089632 L18.4929195,12.3063047 L18.4929195,12.3063047 L18.5,12 C18.5,10.2050746 17.7724627,8.58007456 16.5961941,7.40380592 C15.4199254,6.22753728 13.7949254,5.5 11.7499256,5.50471542 L11.7499256,5.50471542 Z"/>
</svg>
