<svg xmlns="http://www.w3.org/2000/svg" width="19" height="19" viewBox="0 0 19 19">
  <g fill="none" fill-rule="evenodd" transform="translate(-3 -3)">
    <path fill="#404040" d="M6,3 C6.15560404,3 6.29460645,3.07108001 6.38630909,3.1825419 C6.45877807,3.24750082 6.51160732,3.33519587 6.53454584,3.43734265 C6.53474337,3.43822228 6.53493851,3.43910245 6.53513126,3.43998314 L8.627,13 L19.159,13 L20.544,7 L9.5,7 C9.22385763,7 9,6.77614237 9,6.5 C9,6.22385763 9.22385763,6 9.5,6 L21.15,6 C21.4261424,6 21.65,6.22385763 21.65,6.5 C21.65,6.53573607 21.646251,6.57059651 21.6391247,6.60420946 C21.6432409,6.65332172 21.6397538,6.70459934 21.6279105,6.75589832 L20.0532531,13.5764888 C20.0167333,13.7346732 19.9088895,13.8578445 19.771534,13.9198756 C19.6930265,13.9706802 19.5999372,14 19.5,14 L8,14 C7.44771525,14 7,14.4477153 7,15 C7,15.5128358 7.38604019,15.9355072 7.88337887,15.9932723 L8,16 L19.5,16 C19.7761424,16 20,16.2238576 20,16.5 C20,16.7761424 19.7761424,17 19.5,17 L8,17 L8,17 C6.8954305,17 6,16.1045695 6,15 C6,14.0284985 6.69268019,13.2187811 7.61110178,13.0377866 L5.633,4 L3.5,4 C3.22385763,4 3,3.77614237 3,3.5 C3,3.22385763 3.22385763,3 3.5,3 L6,3 Z"/>
    <circle cx="18" cy="20" r="1.5" stroke="#404040"/>
    <circle cx="9" cy="20" r="1.5" stroke="#404040"/>
  </g>
</svg>
