<svg xmlns="http://www.w3.org/2000/svg" width="8" height="13" viewBox="0 0 8 13">
  <g fill="none" fill-rule="evenodd" transform="translate(-4 -1)">
    <path stroke="#404040" stroke-width=".5" d="M8,1.25 C8.48324916,1.25 8.92074916,1.44587542 9.23743687,1.76256313 C9.55412458,2.07925084 9.75,2.51675084 9.75000001,3.00007843 L9.75000001,3.00007843 L9.75115542,6.68307685 C10.9399223,7.31208642 11.75,8.56141598 11.75,10 C11.75,11.0355339 11.330267,11.9730339 10.6516504,12.6516504 C9.97303391,13.330267 9.03553391,13.75 8,13.75 C6.96446609,13.75 6.02696609,13.330267 5.34834957,12.6516504 C4.66973305,11.9730339 4.25,11.0355339 4.25,10 C4.25,8.56100056 5.06054553,7.31136485 6.24987454,6.68253209 L6.24987454,6.68253209 L6.25,3 C6.25,2.51675084 6.44587542,2.07925084 6.76256313,1.76256313 C7.07925084,1.44587542 7.51675084,1.25 8,1.25 Z"/>
    <path fill="#404040" d="M10.8286475,8.99817202 C10.9396111,9.31146737 11,9.6486814 11,10 C11,11.6568542 9.65685425,13 8,13 C6.34314575,13 5,11.6568542 5,10 C5,9.6486814 5.06038886,9.31146737 5.17135248,8.99817202 Z"/>
  </g>
</svg>
