<svg xmlns="http://www.w3.org/2000/svg" width="24" height="17" viewBox="0 0 24 17">
  <g fill="none" fill-rule="evenodd" transform="translate(0 -3)">
    <path stroke="#404040" d="M18,3.5 L18.5,8.73851648 L22.8143047,7.01279462 L23.5,16.522967 L18.5,15.2746141 L18.5,19 L1,19.5 L0.5,4 L18,3.5 Z"/>
    <path fill="#404040" d="M6.48191875,6.81505531 L13.4068802,10.6237841 C13.8908008,10.8899405 14.0673337,11.4979981 13.8011773,11.9819187 C13.7097895,12.1480785 13.5730399,12.2848281 13.4068802,12.3762159 L6.48191875,16.1849447 C5.99799807,16.4511011 5.38994047,16.2745682 5.12378409,15.7906475 C5.04257935,15.6430025 5,15.4772317 5,15.3087288 L5,7.69127122 C5,7.13898647 5.44771525,6.69127122 6,6.69127122 C6.16850297,6.69127122 6.33427377,6.73385057 6.48191875,6.81505531 Z"/>
  </g>
</svg>
