<svg xmlns="http://www.w3.org/2000/svg" width="24" height="24" viewBox="0 0 24 24">
  <g fill="none" fill-rule="evenodd">
    <circle cx="12" cy="12" r="12" fill="#518A85"/>
    <path fill="#FFF" d="M13,2 C14.6568542,2 16,3.34314575 16,5 L16,13 C16,14.6568542 14.6568542,16 13,16 L5,16 C3.34314575,16 2,14.6568542 2,13 L2,5 C2,3.34314575 3.34314575,2 5,2 L13,2 Z M13.135631,5.04742576 C12.8321366,4.80166086 12.386874,4.84845984 12.1411091,5.15195422 L12.1411091,5.15195422 L7.69114197,10.647206 L5.49304125,8.86721915 C5.18954687,8.62145425 4.74428426,8.66825323 4.49851936,8.97174761 C4.25275446,9.27524199 4.29955344,9.72050461 4.60304782,9.96626951 L4.60304782,9.96626951 L7.12305293,12.0069294 C7.5522588,12.3544935 8.18195523,12.2883097 8.52951929,11.8591038 L8.52951929,11.8591038 L13.2401595,6.04194765 C13.4859244,5.73845327 13.4391254,5.29319066 13.135631,5.04742576 Z" transform="translate(3 3)"/>
  </g>
</svg>
