<svg xmlns="http://www.w3.org/2000/svg" width="24" height="24" viewBox="0 0 24 24">
  <g fill="none" fill-rule="evenodd">
    <circle cx="12" cy="12" r="12" fill="#518A85"/>
    <path fill="#FFF" d="M13,2 C14.6568542,2 16,3.34314575 16,5 L16,13 C16,14.6568542 14.6568542,16 13,16 L5,16 C3.34314575,16 2,14.6568542 2,13 L2,5 C2,3.34314575 3.34314575,2 5,2 L13,2 Z M7,8 L4,8 L4,14 L7,14 L7,8 Z M14,8 L8,8 L8,14 L14,14 L14,8 Z M14,4 L8,4 L8,7 L14,7 L14,4 Z M7,4 L4,4 L4,7 L7,7 L7,4 Z" transform="translate(3 3)"/>
  </g>
</svg>
