<svg xmlns="http://www.w3.org/2000/svg" width="24" height="24" viewBox="0 0 24 24">
  <g fill="none" fill-rule="evenodd">
    <circle cx="12" cy="12" r="12" fill="#518A85"/>
    <path fill="#FFF" d="M13,2 C14.6568542,2 16,3.34314575 16,5 L16,13 C16,14.6568542 14.6568542,16 13,16 L5,16 C3.34314575,16 2,14.6568542 2,13 L2,5 C2,3.34314575 3.34314575,2 5,2 L13,2 Z M6,11 L4,11 L4,14 L6,14 L6,11 Z M10,11 L7,11 L7,14 L10,14 L10,11 Z M14,11 L11,11 L11,14 L14,14 L14,11 Z M6,7 L4,7 L4,10 L6,10 L6,7 Z M10,7 L7,7 L7,10 L10,10 L10,7 Z M14,7 L11,7 L11,10 L14,10 L14,7 Z M6,4 L4,4 L4,6 L6,6 L6,4 Z M10,4 L7,4 L7,6 L10,6 L10,4 Z M14,4 L11,4 L11,6 L14,6 L14,4 Z" transform="translate(3 3)"/>
  </g>
</svg>
